<?xml version="1.0" standalone="no"?>
<!DOCTYPE svg PUBLIC "-//W3C//DTD SVG 20010904//EN"
 "http://www.w3.org/TR/2001/REC-SVG-20010904/DTD/svg10.dtd">
<svg version="1.0" xmlns="http://www.w3.org/2000/svg"
 width="180.000000pt" height="40.000000pt" viewBox="0 0 180.000000 40.000000"
 preserveAspectRatio="xMidYMid meet">

<g transform="translate(0.000000,40.000000) scale(0.100000,-0.100000)"
fill="#000000" stroke="none">
<path d="M180 320 c0 -66 -2 -71 -25 -80 -24 -9 -25 -12 -25 -114 0 -85 3
-105 16 -110 32 -12 281 -7 292 7 5 6 22 56 36 110 30 108 27 123 -22 129 -25
3 -27 7 -30 51 -2 26 -7 47 -13 47 -5 0 -9 7 -9 15 0 12 -19 15 -110 15 l-110
0 0 -70z m208 -27 l3 -83 -64 0 c-45 0 -68 5 -77 15 -7 8 -23 15 -36 15 -23 0
-24 3 -24 64 0 42 4 66 13 70 6 2 50 4 97 3 l85 -2 3 -82z m19 -50 c-2 -21 -4
-4 -4 37 0 41 2 58 4 38 2 -21 2 -55 0 -75z m73 -25 c0 -26 -24 -18 -28 10 -3
16 1 20 12 16 9 -3 16 -15 16 -26z m-237 -6 c20 -22 12 -58 -14 -65 -28 -7
-27 -67 1 -67 13 0 20 -7 20 -20 0 -16 7 -20 35 -20 28 0 35 4 35 20 0 13 7
20 20 20 16 0 20 7 20 35 0 28 -4 35 -20 35 -13 0 -20 7 -20 20 0 18 7 20 55
20 l55 0 0 -80 0 -80 -125 0 -125 0 0 100 c0 98 0 100 23 100 13 0 31 -8 40
-18z m67 -62 c0 -11 7 -20 15 -20 8 0 15 -9 15 -20 0 -11 -7 -20 -15 -20 -8 0
-15 -7 -15 -15 0 -8 -9 -15 -20 -15 -11 0 -20 6 -20 14 0 7 -9 16 -20 19 -11
3 -20 12 -20 21 0 9 8 16 20 16 13 0 20 7 20 20 0 13 7 20 20 20 13 0 20 -7
20 -20z"/>
<path d="M230 331 c0 -16 -6 -31 -15 -35 -8 -3 -14 -13 -14 -23 1 -16 2 -16 6
-2 8 32 78 32 86 0 4 -14 5 -14 6 2 0 10 -6 20 -14 23 -9 4 -15 19 -15 35 0
22 -5 29 -20 29 -15 0 -20 -7 -20 -29z m30 -1 c0 -11 -4 -20 -10 -20 -5 0 -10
9 -10 20 0 11 5 20 10 20 6 0 10 -9 10 -20z"/>
<path d="M310 345 c0 -10 10 -15 30 -15 20 0 30 5 30 15 0 10 -10 15 -30 15
-20 0 -30 -5 -30 -15z m43 -2 c-7 -2 -19 -2 -25 0 -7 3 -2 5 12 5 14 0 19 -2
13 -5z"/>
<path d="M323 303 c9 -2 25 -2 35 0 9 3 1 5 -18 5 -19 0 -27 -2 -17 -5z"/>
<path d="M315 280 c3 -5 17 -10 31 -10 13 0 24 5 24 10 0 6 -14 10 -31 10 -17
0 -28 -4 -24 -10z"/>
<path d="M323 253 c9 -2 25 -2 35 0 9 3 1 5 -18 5 -19 0 -27 -2 -17 -5z"/>
<path d="M323 233 c9 -2 25 -2 35 0 9 3 1 5 -18 5 -19 0 -27 -2 -17 -5z"/>
<path d="M750 200 c0 -92 1 -100 19 -100 17 0 20 8 23 47 l3 48 33 -47 c20
-30 40 -48 52 -48 26 0 25 5 -11 62 l-32 49 32 39 c37 46 38 50 9 50 -15 0
-33 -15 -53 -43 l-30 -42 -3 43 c-3 34 -7 42 -23 42 -18 0 -19 -8 -19 -100z"/>
<path d="M1220 275 c0 -8 -4 -15 -10 -15 -5 0 -10 -9 -10 -20 0 -11 5 -20 10
-20 6 0 10 -22 10 -50 0 -38 4 -52 19 -60 31 -16 51 -12 51 10 0 11 -7 20 -15
20 -11 0 -15 11 -15 40 0 29 4 40 15 40 8 0 15 9 15 20 0 11 -7 20 -15 20 -8
0 -15 7 -15 15 0 8 -9 15 -20 15 -11 0 -20 -7 -20 -15z"/>
<path d="M602 244 c-20 -14 -23 -23 -20 -67 3 -43 7 -54 29 -66 32 -18 99 -8
99 16 0 12 -7 14 -30 10 -36 -8 -60 0 -60 19 0 10 13 14 45 14 45 0 45 0 45
35 0 52 -59 74 -108 39z m71 -28 c4 -10 -4 -15 -24 -18 -27 -4 -39 9 -22 25
11 12 41 7 46 -7z"/>
<path d="M960 240 c0 -16 7 -20 30 -20 44 0 37 -16 -10 -24 -51 -8 -73 -45
-46 -75 14 -15 30 -19 72 -18 l54 1 0 68 c0 75 -10 88 -69 88 -24 0 -31 -4
-31 -20z m60 -84 c0 -18 -39 -31 -52 -18 -15 15 0 32 28 32 14 0 24 -6 24 -14z"/>
<path d="M1104 246 c-3 -7 -4 -42 -2 -77 2 -51 6 -64 21 -67 14 -3 17 4 17 38
0 48 14 80 35 80 8 0 15 9 15 20 0 23 -4 24 -31 10 -13 -7 -19 -7 -19 0 0 15
-30 12 -36 -4z"/>
<path d="M1330 240 c-23 -23 -27 -86 -7 -113 20 -28 78 -33 107 -9 34 28 35
96 1 123 -30 25 -76 24 -101 -1z m80 -35 c11 -29 -3 -75 -23 -75 -21 0 -37 22
-37 50 0 50 44 68 60 25z"/>
<path d="M1490 179 c0 -71 2 -80 18 -77 13 2 18 15 20 60 2 40 7 58 19 62 28
11 43 -13 43 -71 0 -46 3 -54 18 -51 25 5 30 118 7 142 -19 19 -56 21 -73 4
-9 -9 -12 -9 -12 0 0 7 -9 12 -20 12 -18 0 -20 -7 -20 -81z"/>
</g>
</svg>
